# xmcd CD database file
#
# Track frame offsets:
#	150
#	13960
#	25862
#	37324
#	49820
#	60292
#	71082
#	82202
#	93205
#	105173
#	116340
#	127966
#	139430
#	151181
#
# Disc length: 2172 seconds
#
# Revision: 0
# Processed by: cddbd v1.5.1PL0 Copyright (c) Steve Scherf et al.
# Submitted via: CDex 1.51
#
DISCID=b8087a0e
DTITLE=Patsy Cline - Fingerprints
DYEAR=2005
DGENRE=Country
TTITLE0=A Church, a Courtroom, Then Goodbye
TTITLE1=A Poor Man's Roses
TTITLE2=Cry Not For Me
TTITLE3=Fingerprints
TTITLE4=Got Lots of Rhythm in My Soul
TTITLE5=Honky Tonk Merry-Go-Round
TTITLE6=Hidin' Out
TTITLE7=I Cried All the Way to the Altar
TTITLE8=I've Loved and Lost Again
TTITLE9=I Can't Forget
TTITLE10=In Care of the Blues
TTITLE11=Just Out of Reach
TTITLE12=Let the Teardrops Fall
TTITLE13=NeverNo More
EXTD=YEAR: 2005
EXTT0=
EXTT1=
EXTT2=
EXTT3=
EXTT4=
EXTT5=
EXTT6=
EXTT7=
EXTT8=
EXTT9=
EXTT10=
EXTT11=
EXTT12=
EXTT13=
PLAYORDER=
